<svg xmlns="http://www.w3.org/2000/svg" viewBox="0 0 560 495" width="560" height="495" role="img" aria-label="An emerald velvet couch on a small stage, with book spines standing on the seat">
  <style>
    .tc-book-title { font-family: "Hoefler Text","Iowan Old Style","Palatino Linotype",Palatino,Georgia,"Times New Roman",serif; letter-spacing: .01em; }
    .tc-book-no    { font-family: ui-sans-serif,-apple-system,"Segoe UI",system-ui,sans-serif; font-size: 6.5px; letter-spacing: .12em; }
    .tc-fo-label   { font-family: ui-sans-serif,-apple-system,"Segoe UI",system-ui,sans-serif; font-size: 5.4px; letter-spacing: .18em; fill: rgba(233,226,208,.62); }
    .tc-fo-title   { font-family: "Hoefler Text","Iowan Old Style","Palatino Linotype",Palatino,Georgia,"Times New Roman",serif; font-size: 16px; fill: #efe7d6; }
    .tc-fo-sub     { font-family: ui-sans-serif,-apple-system,"Segoe UI",system-ui,sans-serif; font-size: 5px; letter-spacing: .12em; fill: rgba(233,226,208,.5); }
  </style><defs><linearGradient id="tc-curtain" x1="0" y1="0" x2="1" y2="0"><stop offset="0.00%" stop-color="#23050b"></stop><stop offset="4.84%" stop-color="#711a26"></stop><stop offset="7.34%" stop-color="#23050b"></stop><stop offset="13.29%" stop-color="#711a26"></stop><stop offset="16.50%" stop-color="#23050b"></stop><stop offset="20.29%" stop-color="#711a26"></stop><stop offset="25.97%" stop-color="#23050b"></stop><stop offset="28.28%" stop-color="#711a26"></stop><stop offset="33.67%" stop-color="#23050b"></stop><stop offset="37.89%" stop-color="#711a26"></stop><stop offset="40.76%" stop-color="#23050b"></stop><stop offset="46.78%" stop-color="#711a26"></stop><stop offset="49.51%" stop-color="#23050b"></stop><stop offset="53.94%" stop-color="#711a26"></stop><stop offset="59.16%" stop-color="#23050b"></stop><stop offset="61.51%" stop-color="#711a26"></stop><stop offset="67.30%" stop-color="#23050b"></stop><stop offset="70.89%" stop-color="#711a26"></stop><stop offset="74.28%" stop-color="#23050b"></stop><stop offset="80.17%" stop-color="#711a26"></stop><stop offset="82.58%" stop-color="#23050b"></stop><stop offset="87.61%" stop-color="#711a26"></stop><stop offset="92.26%" stop-color="#23050b"></stop><stop offset="94.85%" stop-color="#711a26"></stop><stop offset="100.00%" stop-color="#23050b"></stop></linearGradient><linearGradient id="tc-valance" x1="0" y1="0" x2="0" y2="1"><stop offset="0%" stop-color="#9e2734"></stop><stop offset="55%" stop-color="#71161f"></stop><stop offset="100%" stop-color="#3c0a11"></stop></linearGradient><linearGradient id="tc-back" x1="0" y1="0" x2="0" y2="1"><stop offset="0%" stop-color="#256f4e"></stop><stop offset="45%" stop-color="#16523a"></stop><stop offset="100%" stop-color="#092b1d"></stop></linearGradient><linearGradient id="tc-seat" x1="0" y1="0" x2="0" y2="1"><stop offset="0%" stop-color="#27754f"></stop><stop offset="40%" stop-color="#144d34"></stop><stop offset="100%" stop-color="#082619"></stop></linearGradient><linearGradient id="tc-arm" x1="0" y1="0" x2="1" y2="0"><stop offset="0%" stop-color="#0b3020"></stop><stop offset="48%" stop-color="#22704e"></stop><stop offset="100%" stop-color="#10422c"></stop></linearGradient><radialGradient id="tc-roll" cx="0.36" cy="0.3" r="0.8"><stop offset="0%" stop-color="#2f8a63"></stop><stop offset="55%" stop-color="#16583c"></stop><stop offset="100%" stop-color="#082718"></stop></radialGradient><linearGradient id="tc-rail" x1="0" y1="0" x2="0" y2="1"><stop offset="0%" stop-color="#114733"></stop><stop offset="100%" stop-color="#061e13"></stop></linearGradient><radialGradient id="tc-puff" cx="0.5" cy="0.42" r="0.62"><stop offset="0%" stop-color="#45ad7e" stop-opacity="0.5"></stop><stop offset="70%" stop-color="#45ad7e" stop-opacity="0.07"></stop><stop offset="100%" stop-color="#45ad7e" stop-opacity="0"></stop></radialGradient><radialGradient id="tc-button" cx="0.35" cy="0.3" r="0.85"><stop offset="0%" stop-color="#216d4b"></stop><stop offset="100%" stop-color="#071f14"></stop></radialGradient><linearGradient id="tc-spine" x1="0" y1="0" x2="1" y2="0"><stop offset="0%" stop-color="#fff" stop-opacity="0.22"></stop><stop offset="16%" stop-color="#fff" stop-opacity="0.04"></stop><stop offset="62%" stop-color="#000" stop-opacity="0.04"></stop><stop offset="100%" stop-color="#000" stop-opacity="0.3"></stop></linearGradient><linearGradient id="tc-faceout" x1="0.1" y1="0" x2="0.9" y2="1"><stop offset="0%" stop-color="#33406e"></stop><stop offset="100%" stop-color="#20294a"></stop></linearGradient><linearGradient id="tc-wood" x1="0" y1="0" x2="1" y2="0"><stop offset="0%" stop-color="#28180d"></stop><stop offset="34%" stop-color="#79522f"></stop><stop offset="52%" stop-color="#9b6e43"></stop><stop offset="100%" stop-color="#231407"></stop></linearGradient><radialGradient id="tc-brass" cx="0.34" cy="0.3" r="0.8"><stop offset="0%" stop-color="#f2d48f"></stop><stop offset="45%" stop-color="#bd8f42"></stop><stop offset="100%" stop-color="#6b4a1a"></stop></radialGradient><linearGradient id="tc-brassline" x1="0" y1="0" x2="1" y2="0"><stop offset="0%" stop-color="#7d5926"></stop><stop offset="50%" stop-color="#e3c078"></stop><stop offset="100%" stop-color="#7d5926"></stop></linearGradient><linearGradient id="tc-floor" x1="0" y1="0" x2="0" y2="1"><stop offset="0%" stop-color="#2d1c15"></stop><stop offset="45%" stop-color="#170c09"></stop><stop offset="100%" stop-color="#0b0504"></stop></linearGradient><radialGradient id="tc-spot" cx="0.5" cy="0.5" r="0.5"><stop offset="0%" stop-color="#f2cd90" stop-opacity="0.3"></stop><stop offset="45%" stop-color="#c98f4e" stop-opacity="0.11"></stop><stop offset="100%" stop-color="#c98f4e" stop-opacity="0"></stop></radialGradient><radialGradient id="tc-contact" cx="0.5" cy="0.5" r="0.5"><stop offset="0%" stop-color="#080304" stop-opacity="0.75"></stop><stop offset="60%" stop-color="#080304" stop-opacity="0.4"></stop><stop offset="100%" stop-color="#080304" stop-opacity="0"></stop></radialGradient><radialGradient id="tc-vignette" cx="0.5" cy="0.44" r="0.75"><stop offset="0%" stop-color="#000" stop-opacity="0"></stop><stop offset="58%" stop-color="#000" stop-opacity="0.22"></stop><stop offset="100%" stop-color="#000" stop-opacity="0.78"></stop></radialGradient><filter id="tc-napfilter" x="0" y="0" width="100%" height="100%"><feTurbulence type="fractalNoise" baseFrequency="0.85" numOctaves="3" stitchTiles="stitch"></feTurbulence><feColorMatrix type="saturate" values="0"></feColorMatrix></filter><pattern id="tc-nap" width="160" height="160" patternUnits="userSpaceOnUse"><rect width="160" height="160" filter="url(#tc-napfilter)"></rect></pattern><clipPath id="tc-backclip"><path d="M 88,334 L 88,158
          C 88,137 106,132 130,132
          L 430,132
          C 454,132 472,137 472,158
          L 472,334 Z"></path></clipPath></defs><rect width="560" height="495" fill="#150809"></rect><rect width="560" height="407" fill="url(#tc-curtain)"></rect><g><path d="M 8,0 C 12,120 4,240 11,407" stroke="#20050a" stroke-width="3" fill="none" opacity="0.55"></path><path d="M 45.0527790833069,0 C 49.0527790833069,120 41.0527790833069,240 48.0527790833069,407" stroke="#20050a" stroke-width="5" fill="none" opacity="0.55"></path><path d="M 68.02301234698496,0 C 72.02301234698496,120 64.02301234698496,240 71.02301234698496,407" stroke="#20050a" stroke-width="7" fill="none" opacity="0.55"></path><path d="M 111.76200718309491,0 C 115.76200718309491,120 107.76200718309491,240 114.76200718309491,407" stroke="#20050a" stroke-width="3" fill="none" opacity="0.55"></path><path d="M 138.95403931266213,0 C 142.95403931266213,120 134.95403931266213,240 141.95403931266213,407" stroke="#20050a" stroke-width="5" fill="none" opacity="0.55"></path><path d="M 169.7805624919974,0 C 173.7805624919974,120 165.7805624919974,240 172.7805624919974,407" stroke="#20050a" stroke-width="7" fill="none" opacity="0.55"></path><path d="M 211.79394665929567,0 C 215.79394665929567,120 207.79394665929567,240 214.79394665929567,407" stroke="#20050a" stroke-width="3" fill="none" opacity="0.55"></path><path d="M 233.67459779851097,0 C 237.67459779851097,120 229.67459779851097,240 236.67459779851097,407" stroke="#20050a" stroke-width="5" fill="none" opacity="0.55"></path><path d="M 274.05988957291936,0 C 278.05988957291936,120 270.05988957291936,240 277.05988957291936,407" stroke="#20050a" stroke-width="7" fill="none" opacity="0.55"></path><path d="M 307.28750294992966,0 C 311.28750294992966,120 303.28750294992966,240 310.28750294992966,407" stroke="#20050a" stroke-width="3" fill="none" opacity="0.55"></path><path d="M 332.56652982796027,0 C 336.56652982796027,120 328.56652982796027,240 335.56652982796027,407" stroke="#20050a" stroke-width="5" fill="none" opacity="0.55"></path><path d="M 376.7257105669562,0 C 380.7257105669562,120 372.7257105669562,240 379.7257105669562,407" stroke="#20050a" stroke-width="7" fill="none" opacity="0.55"></path><path d="M 400.9892641938766,0 C 404.9892641938766,120 396.9892641938766,240 403.9892641938766,407" stroke="#20050a" stroke-width="3" fill="none" opacity="0.55"></path><path d="M 435.71448475822467,0 C 439.71448475822467,120 431.71448475822467,240 438.71448475822467,407" stroke="#20050a" stroke-width="5" fill="none" opacity="0.55"></path><path d="M 474.9065975271586,0 C 478.9065975271586,120 470.9065975271586,240 477.9065975271586,407" stroke="#20050a" stroke-width="7" fill="none" opacity="0.55"></path><path d="M 497.0493268793413,0 C 501.0493268793413,120 493.0493268793413,240 500.0493268793413,407" stroke="#20050a" stroke-width="3" fill="none" opacity="0.55"></path><path d="M 539.8693803976691,0 C 543.8693803976691,120 535.8693803976691,240 542.8693803976691,407" stroke="#20050a" stroke-width="5" fill="none" opacity="0.55"></path></g><path d="M 0,0 L 560,0 L 560,28 Q 520,56 480,28 Q 440,56 400,28 Q 360,56 320,28 Q 280,56 240,28 Q 200,56 160,28 Q 120,56 80,28 Q 40,56 0,28 L 0,0 Z" fill="url(#tc-valance)"></path><path d="M 560,28 Q 520,56 480,28 Q 440,56 400,28 Q 360,56 320,28 Q 280,56 240,28 Q 200,56 160,28 Q 120,56 80,28 Q 40,56 0,28" fill="none" stroke="url(#tc-brassline)" stroke-width="1.8"></path><g opacity="0.9"><g><line x1="80" y1="27" x2="80" y2="37" stroke="#9c7333" stroke-width="1.1"></line><path d="M 76.5,37 L 83.5,37 L 82.2,48 L 77.8,48 Z" fill="url(#tc-brass)"></path><path d="M 77.8,48 L 82.2,48 L 81.2,54 L 78.8,54 Z" fill="#8a6329"></path></g><g><line x1="160" y1="27" x2="160" y2="37" stroke="#9c7333" stroke-width="1.1"></line><path d="M 156.5,37 L 163.5,37 L 162.2,48 L 157.8,48 Z" fill="url(#tc-brass)"></path><path d="M 157.8,48 L 162.2,48 L 161.2,54 L 158.8,54 Z" fill="#8a6329"></path></g><g><line x1="240" y1="27" x2="240" y2="37" stroke="#9c7333" stroke-width="1.1"></line><path d="M 236.5,37 L 243.5,37 L 242.2,48 L 237.8,48 Z" fill="url(#tc-brass)"></path><path d="M 237.8,48 L 242.2,48 L 241.2,54 L 238.8,54 Z" fill="#8a6329"></path></g><g><line x1="320" y1="27" x2="320" y2="37" stroke="#9c7333" stroke-width="1.1"></line><path d="M 316.5,37 L 323.5,37 L 322.2,48 L 317.8,48 Z" fill="url(#tc-brass)"></path><path d="M 317.8,48 L 322.2,48 L 321.2,54 L 318.8,54 Z" fill="#8a6329"></path></g><g><line x1="400" y1="27" x2="400" y2="37" stroke="#9c7333" stroke-width="1.1"></line><path d="M 396.5,37 L 403.5,37 L 402.2,48 L 397.8,48 Z" fill="url(#tc-brass)"></path><path d="M 397.8,48 L 402.2,48 L 401.2,54 L 398.8,54 Z" fill="#8a6329"></path></g><g><line x1="480" y1="27" x2="480" y2="37" stroke="#9c7333" stroke-width="1.1"></line><path d="M 476.5,37 L 483.5,37 L 482.2,48 L 477.8,48 Z" fill="url(#tc-brass)"></path><path d="M 477.8,48 L 482.2,48 L 481.2,54 L 478.8,54 Z" fill="#8a6329"></path></g></g><rect width="560" height="495" fill="url(#tc-vignette)"></rect><rect y="403" width="560" height="92" fill="url(#tc-floor)"></rect><ellipse cx="280" cy="441" rx="290" ry="38" fill="url(#tc-spot)" class="tc-spot"></ellipse><ellipse cx="280" cy="429" rx="200" ry="13" fill="url(#tc-contact)"></ellipse><path d="M 88,334 L 88,158
          C 88,137 106,132 130,132
          L 430,132
          C 454,132 472,137 472,158
          L 472,334 Z" fill="url(#tc-back)"></path><g clip-path="url(#tc-backclip)"><rect x="88" y="132" width="384" height="202" fill="url(#tc-nap)" opacity="0.26" style="mix-blend-mode: soft-light;"></rect><g><g opacity="0.3"><ellipse cx="125" cy="168" rx="19.76" ry="17.92" fill="url(#tc-puff)"></ellipse><ellipse cx="163" cy="168" rx="19.76" ry="17.92" fill="url(#tc-puff)"></ellipse><ellipse cx="201" cy="168" rx="19.76" ry="17.92" fill="url(#tc-puff)"></ellipse><ellipse cx="239" cy="168" rx="19.76" ry="17.92" fill="url(#tc-puff)"></ellipse><ellipse cx="277" cy="168" rx="19.76" ry="17.92" fill="url(#tc-puff)"></ellipse><ellipse cx="315" cy="168" rx="19.76" ry="17.92" fill="url(#tc-puff)"></ellipse><ellipse cx="353" cy="168" rx="19.76" ry="17.92" fill="url(#tc-puff)"></ellipse><ellipse cx="391" cy="168" rx="19.76" ry="17.92" fill="url(#tc-puff)"></ellipse><ellipse cx="429" cy="168" rx="19.76" ry="17.92" fill="url(#tc-puff)"></ellipse><ellipse cx="467" cy="168" rx="19.76" ry="17.92" fill="url(#tc-puff)"></ellipse><ellipse cx="144" cy="200" rx="19.76" ry="17.92" fill="url(#tc-puff)"></ellipse><ellipse cx="182" cy="200" rx="19.76" ry="17.92" fill="url(#tc-puff)"></ellipse><ellipse cx="220" cy="200" rx="19.76" ry="17.92" fill="url(#tc-puff)"></ellipse><ellipse cx="258" cy="200" rx="19.76" ry="17.92" fill="url(#tc-puff)"></ellipse><ellipse cx="296" cy="200" rx="19.76" ry="17.92" fill="url(#tc-puff)"></ellipse><ellipse cx="334" cy="200" rx="19.76" ry="17.92" fill="url(#tc-puff)"></ellipse><ellipse cx="372" cy="200" rx="19.76" ry="17.92" fill="url(#tc-puff)"></ellipse><ellipse cx="410" cy="200" rx="19.76" ry="17.92" fill="url(#tc-puff)"></ellipse><ellipse cx="448" cy="200" rx="19.76" ry="17.92" fill="url(#tc-puff)"></ellipse><ellipse cx="125" cy="232" rx="19.76" ry="17.92" fill="url(#tc-puff)"></ellipse><ellipse cx="163" cy="232" rx="19.76" ry="17.92" fill="url(#tc-puff)"></ellipse><ellipse cx="201" cy="232" rx="19.76" ry="17.92" fill="url(#tc-puff)"></ellipse><ellipse cx="239" cy="232" rx="19.76" ry="17.92" fill="url(#tc-puff)"></ellipse><ellipse cx="277" cy="232" rx="19.76" ry="17.92" fill="url(#tc-puff)"></ellipse><ellipse cx="315" cy="232" rx="19.76" ry="17.92" fill="url(#tc-puff)"></ellipse><ellipse cx="353" cy="232" rx="19.76" ry="17.92" fill="url(#tc-puff)"></ellipse><ellipse cx="391" cy="232" rx="19.76" ry="17.92" fill="url(#tc-puff)"></ellipse><ellipse cx="429" cy="232" rx="19.76" ry="17.92" fill="url(#tc-puff)"></ellipse><ellipse cx="467" cy="232" rx="19.76" ry="17.92" fill="url(#tc-puff)"></ellipse><ellipse cx="144" cy="264" rx="19.76" ry="17.92" fill="url(#tc-puff)"></ellipse><ellipse cx="182" cy="264" rx="19.76" ry="17.92" fill="url(#tc-puff)"></ellipse><ellipse cx="220" cy="264" rx="19.76" ry="17.92" fill="url(#tc-puff)"></ellipse><ellipse cx="258" cy="264" rx="19.76" ry="17.92" fill="url(#tc-puff)"></ellipse><ellipse cx="296" cy="264" rx="19.76" ry="17.92" fill="url(#tc-puff)"></ellipse><ellipse cx="334" cy="264" rx="19.76" ry="17.92" fill="url(#tc-puff)"></ellipse><ellipse cx="372" cy="264" rx="19.76" ry="17.92" fill="url(#tc-puff)"></ellipse><ellipse cx="410" cy="264" rx="19.76" ry="17.92" fill="url(#tc-puff)"></ellipse><ellipse cx="448" cy="264" rx="19.76" ry="17.92" fill="url(#tc-puff)"></ellipse><ellipse cx="125" cy="296" rx="19.76" ry="17.92" fill="url(#tc-puff)"></ellipse><ellipse cx="163" cy="296" rx="19.76" ry="17.92" fill="url(#tc-puff)"></ellipse><ellipse cx="201" cy="296" rx="19.76" ry="17.92" fill="url(#tc-puff)"></ellipse><ellipse cx="239" cy="296" rx="19.76" ry="17.92" fill="url(#tc-puff)"></ellipse><ellipse cx="277" cy="296" rx="19.76" ry="17.92" fill="url(#tc-puff)"></ellipse><ellipse cx="315" cy="296" rx="19.76" ry="17.92" fill="url(#tc-puff)"></ellipse><ellipse cx="353" cy="296" rx="19.76" ry="17.92" fill="url(#tc-puff)"></ellipse><ellipse cx="391" cy="296" rx="19.76" ry="17.92" fill="url(#tc-puff)"></ellipse><ellipse cx="429" cy="296" rx="19.76" ry="17.92" fill="url(#tc-puff)"></ellipse><ellipse cx="467" cy="296" rx="19.76" ry="17.92" fill="url(#tc-puff)"></ellipse><ellipse cx="144" cy="328" rx="19.76" ry="17.92" fill="url(#tc-puff)"></ellipse><ellipse cx="182" cy="328" rx="19.76" ry="17.92" fill="url(#tc-puff)"></ellipse><ellipse cx="220" cy="328" rx="19.76" ry="17.92" fill="url(#tc-puff)"></ellipse><ellipse cx="258" cy="328" rx="19.76" ry="17.92" fill="url(#tc-puff)"></ellipse><ellipse cx="296" cy="328" rx="19.76" ry="17.92" fill="url(#tc-puff)"></ellipse><ellipse cx="334" cy="328" rx="19.76" ry="17.92" fill="url(#tc-puff)"></ellipse><ellipse cx="372" cy="328" rx="19.76" ry="17.92" fill="url(#tc-puff)"></ellipse><ellipse cx="410" cy="328" rx="19.76" ry="17.92" fill="url(#tc-puff)"></ellipse><ellipse cx="448" cy="328" rx="19.76" ry="17.92" fill="url(#tc-puff)"></ellipse></g><path d="M 106,152 L 87,184 M 106,152 L 125,184" stroke="#06241a" stroke-width="0.9" opacity="0.45" fill="none"></path><path d="M 144,152 L 125,184 M 144,152 L 163,184" stroke="#06241a" stroke-width="0.9" opacity="0.45" fill="none"></path><path d="M 182,152 L 163,184 M 182,152 L 201,184" stroke="#06241a" stroke-width="0.9" opacity="0.45" fill="none"></path><path d="M 220,152 L 201,184 M 220,152 L 239,184" stroke="#06241a" stroke-width="0.9" opacity="0.45" fill="none"></path><path d="M 258,152 L 239,184 M 258,152 L 277,184" stroke="#06241a" stroke-width="0.9" opacity="0.45" fill="none"></path><path d="M 296,152 L 277,184 M 296,152 L 315,184" stroke="#06241a" stroke-width="0.9" opacity="0.45" fill="none"></path><path d="M 334,152 L 315,184 M 334,152 L 353,184" stroke="#06241a" stroke-width="0.9" opacity="0.45" fill="none"></path><path d="M 372,152 L 353,184 M 372,152 L 391,184" stroke="#06241a" stroke-width="0.9" opacity="0.45" fill="none"></path><path d="M 410,152 L 391,184 M 410,152 L 429,184" stroke="#06241a" stroke-width="0.9" opacity="0.45" fill="none"></path><path d="M 448,152 L 429,184 M 448,152 L 467,184" stroke="#06241a" stroke-width="0.9" opacity="0.45" fill="none"></path><path d="M 125,184 L 106,216 M 125,184 L 144,216" stroke="#06241a" stroke-width="0.9" opacity="0.45" fill="none"></path><path d="M 163,184 L 144,216 M 163,184 L 182,216" stroke="#06241a" stroke-width="0.9" opacity="0.45" fill="none"></path><path d="M 201,184 L 182,216 M 201,184 L 220,216" stroke="#06241a" stroke-width="0.9" opacity="0.45" fill="none"></path><path d="M 239,184 L 220,216 M 239,184 L 258,216" stroke="#06241a" stroke-width="0.9" opacity="0.45" fill="none"></path><path d="M 277,184 L 258,216 M 277,184 L 296,216" stroke="#06241a" stroke-width="0.9" opacity="0.45" fill="none"></path><path d="M 315,184 L 296,216 M 315,184 L 334,216" stroke="#06241a" stroke-width="0.9" opacity="0.45" fill="none"></path><path d="M 353,184 L 334,216 M 353,184 L 372,216" stroke="#06241a" stroke-width="0.9" opacity="0.45" fill="none"></path><path d="M 391,184 L 372,216 M 391,184 L 410,216" stroke="#06241a" stroke-width="0.9" opacity="0.45" fill="none"></path><path d="M 429,184 L 410,216 M 429,184 L 448,216" stroke="#06241a" stroke-width="0.9" opacity="0.45" fill="none"></path><path d="M 106,216 L 87,248 M 106,216 L 125,248" stroke="#06241a" stroke-width="0.9" opacity="0.45" fill="none"></path><path d="M 144,216 L 125,248 M 144,216 L 163,248" stroke="#06241a" stroke-width="0.9" opacity="0.45" fill="none"></path><path d="M 182,216 L 163,248 M 182,216 L 201,248" stroke="#06241a" stroke-width="0.9" opacity="0.45" fill="none"></path><path d="M 220,216 L 201,248 M 220,216 L 239,248" stroke="#06241a" stroke-width="0.9" opacity="0.45" fill="none"></path><path d="M 258,216 L 239,248 M 258,216 L 277,248" stroke="#06241a" stroke-width="0.9" opacity="0.45" fill="none"></path><path d="M 296,216 L 277,248 M 296,216 L 315,248" stroke="#06241a" stroke-width="0.9" opacity="0.45" fill="none"></path><path d="M 334,216 L 315,248 M 334,216 L 353,248" stroke="#06241a" stroke-width="0.9" opacity="0.45" fill="none"></path><path d="M 372,216 L 353,248 M 372,216 L 391,248" stroke="#06241a" stroke-width="0.9" opacity="0.45" fill="none"></path><path d="M 410,216 L 391,248 M 410,216 L 429,248" stroke="#06241a" stroke-width="0.9" opacity="0.45" fill="none"></path><path d="M 448,216 L 429,248 M 448,216 L 467,248" stroke="#06241a" stroke-width="0.9" opacity="0.45" fill="none"></path><path d="M 125,248 L 106,280 M 125,248 L 144,280" stroke="#06241a" stroke-width="0.9" opacity="0.45" fill="none"></path><path d="M 163,248 L 144,280 M 163,248 L 182,280" stroke="#06241a" stroke-width="0.9" opacity="0.45" fill="none"></path><path d="M 201,248 L 182,280 M 201,248 L 220,280" stroke="#06241a" stroke-width="0.9" opacity="0.45" fill="none"></path><path d="M 239,248 L 220,280 M 239,248 L 258,280" stroke="#06241a" stroke-width="0.9" opacity="0.45" fill="none"></path><path d="M 277,248 L 258,280 M 277,248 L 296,280" stroke="#06241a" stroke-width="0.9" opacity="0.45" fill="none"></path><path d="M 315,248 L 296,280 M 315,248 L 334,280" stroke="#06241a" stroke-width="0.9" opacity="0.45" fill="none"></path><path d="M 353,248 L 334,280 M 353,248 L 372,280" stroke="#06241a" stroke-width="0.9" opacity="0.45" fill="none"></path><path d="M 391,248 L 372,280 M 391,248 L 410,280" stroke="#06241a" stroke-width="0.9" opacity="0.45" fill="none"></path><path d="M 429,248 L 410,280 M 429,248 L 448,280" stroke="#06241a" stroke-width="0.9" opacity="0.45" fill="none"></path><path d="M 106,280 L 87,312 M 106,280 L 125,312" stroke="#06241a" stroke-width="0.9" opacity="0.45" fill="none"></path><path d="M 144,280 L 125,312 M 144,280 L 163,312" stroke="#06241a" stroke-width="0.9" opacity="0.45" fill="none"></path><path d="M 182,280 L 163,312 M 182,280 L 201,312" stroke="#06241a" stroke-width="0.9" opacity="0.45" fill="none"></path><path d="M 220,280 L 201,312 M 220,280 L 239,312" stroke="#06241a" stroke-width="0.9" opacity="0.45" fill="none"></path><path d="M 258,280 L 239,312 M 258,280 L 277,312" stroke="#06241a" stroke-width="0.9" opacity="0.45" fill="none"></path><path d="M 296,280 L 277,312 M 296,280 L 315,312" stroke="#06241a" stroke-width="0.9" opacity="0.45" fill="none"></path><path d="M 334,280 L 315,312 M 334,280 L 353,312" stroke="#06241a" stroke-width="0.9" opacity="0.45" fill="none"></path><path d="M 372,280 L 353,312 M 372,280 L 391,312" stroke="#06241a" stroke-width="0.9" opacity="0.45" fill="none"></path><path d="M 410,280 L 391,312 M 410,280 L 429,312" stroke="#06241a" stroke-width="0.9" opacity="0.45" fill="none"></path><path d="M 448,280 L 429,312 M 448,280 L 467,312" stroke="#06241a" stroke-width="0.9" opacity="0.45" fill="none"></path><path d="M 125,312 L 106,344 M 125,312 L 144,344" stroke="#06241a" stroke-width="0.9" opacity="0.45" fill="none"></path><path d="M 163,312 L 144,344 M 163,312 L 182,344" stroke="#06241a" stroke-width="0.9" opacity="0.45" fill="none"></path><path d="M 201,312 L 182,344 M 201,312 L 220,344" stroke="#06241a" stroke-width="0.9" opacity="0.45" fill="none"></path><path d="M 239,312 L 220,344 M 239,312 L 258,344" stroke="#06241a" stroke-width="0.9" opacity="0.45" fill="none"></path><path d="M 277,312 L 258,344 M 277,312 L 296,344" stroke="#06241a" stroke-width="0.9" opacity="0.45" fill="none"></path><path d="M 315,312 L 296,344 M 315,312 L 334,344" stroke="#06241a" stroke-width="0.9" opacity="0.45" fill="none"></path><path d="M 353,312 L 334,344 M 353,312 L 372,344" stroke="#06241a" stroke-width="0.9" opacity="0.45" fill="none"></path><path d="M 391,312 L 372,344 M 391,312 L 410,344" stroke="#06241a" stroke-width="0.9" opacity="0.45" fill="none"></path><path d="M 429,312 L 410,344 M 429,312 L 448,344" stroke="#06241a" stroke-width="0.9" opacity="0.45" fill="none"></path><g><ellipse cx="106" cy="153.3" rx="3.6" ry="2.9" fill="#04170f" opacity="0.8"></ellipse><circle cx="106" cy="152" r="2.7" fill="url(#tc-button)"></circle><circle cx="105.2" cy="151.1" r="0.9" fill="#68c79e" opacity="0.45"></circle></g><g><ellipse cx="144" cy="153.3" rx="3.6" ry="2.9" fill="#04170f" opacity="0.8"></ellipse><circle cx="144" cy="152" r="2.7" fill="url(#tc-button)"></circle><circle cx="143.2" cy="151.1" r="0.9" fill="#68c79e" opacity="0.45"></circle></g><g><ellipse cx="182" cy="153.3" rx="3.6" ry="2.9" fill="#04170f" opacity="0.8"></ellipse><circle cx="182" cy="152" r="2.7" fill="url(#tc-button)"></circle><circle cx="181.2" cy="151.1" r="0.9" fill="#68c79e" opacity="0.45"></circle></g><g><ellipse cx="220" cy="153.3" rx="3.6" ry="2.9" fill="#04170f" opacity="0.8"></ellipse><circle cx="220" cy="152" r="2.7" fill="url(#tc-button)"></circle><circle cx="219.2" cy="151.1" r="0.9" fill="#68c79e" opacity="0.45"></circle></g><g><ellipse cx="258" cy="153.3" rx="3.6" ry="2.9" fill="#04170f" opacity="0.8"></ellipse><circle cx="258" cy="152" r="2.7" fill="url(#tc-button)"></circle><circle cx="257.2" cy="151.1" r="0.9" fill="#68c79e" opacity="0.45"></circle></g><g><ellipse cx="296" cy="153.3" rx="3.6" ry="2.9" fill="#04170f" opacity="0.8"></ellipse><circle cx="296" cy="152" r="2.7" fill="url(#tc-button)"></circle><circle cx="295.2" cy="151.1" r="0.9" fill="#68c79e" opacity="0.45"></circle></g><g><ellipse cx="334" cy="153.3" rx="3.6" ry="2.9" fill="#04170f" opacity="0.8"></ellipse><circle cx="334" cy="152" r="2.7" fill="url(#tc-button)"></circle><circle cx="333.2" cy="151.1" r="0.9" fill="#68c79e" opacity="0.45"></circle></g><g><ellipse cx="372" cy="153.3" rx="3.6" ry="2.9" fill="#04170f" opacity="0.8"></ellipse><circle cx="372" cy="152" r="2.7" fill="url(#tc-button)"></circle><circle cx="371.2" cy="151.1" r="0.9" fill="#68c79e" opacity="0.45"></circle></g><g><ellipse cx="410" cy="153.3" rx="3.6" ry="2.9" fill="#04170f" opacity="0.8"></ellipse><circle cx="410" cy="152" r="2.7" fill="url(#tc-button)"></circle><circle cx="409.2" cy="151.1" r="0.9" fill="#68c79e" opacity="0.45"></circle></g><g><ellipse cx="448" cy="153.3" rx="3.6" ry="2.9" fill="#04170f" opacity="0.8"></ellipse><circle cx="448" cy="152" r="2.7" fill="url(#tc-button)"></circle><circle cx="447.2" cy="151.1" r="0.9" fill="#68c79e" opacity="0.45"></circle></g><g><ellipse cx="125" cy="185.3" rx="3.6" ry="2.9" fill="#04170f" opacity="0.8"></ellipse><circle cx="125" cy="184" r="2.7" fill="url(#tc-button)"></circle><circle cx="124.2" cy="183.1" r="0.9" fill="#68c79e" opacity="0.45"></circle></g><g><ellipse cx="163" cy="185.3" rx="3.6" ry="2.9" fill="#04170f" opacity="0.8"></ellipse><circle cx="163" cy="184" r="2.7" fill="url(#tc-button)"></circle><circle cx="162.2" cy="183.1" r="0.9" fill="#68c79e" opacity="0.45"></circle></g><g><ellipse cx="201" cy="185.3" rx="3.6" ry="2.9" fill="#04170f" opacity="0.8"></ellipse><circle cx="201" cy="184" r="2.7" fill="url(#tc-button)"></circle><circle cx="200.2" cy="183.1" r="0.9" fill="#68c79e" opacity="0.45"></circle></g><g><ellipse cx="239" cy="185.3" rx="3.6" ry="2.9" fill="#04170f" opacity="0.8"></ellipse><circle cx="239" cy="184" r="2.7" fill="url(#tc-button)"></circle><circle cx="238.2" cy="183.1" r="0.9" fill="#68c79e" opacity="0.45"></circle></g><g><ellipse cx="277" cy="185.3" rx="3.6" ry="2.9" fill="#04170f" opacity="0.8"></ellipse><circle cx="277" cy="184" r="2.7" fill="url(#tc-button)"></circle><circle cx="276.2" cy="183.1" r="0.9" fill="#68c79e" opacity="0.45"></circle></g><g><ellipse cx="315" cy="185.3" rx="3.6" ry="2.9" fill="#04170f" opacity="0.8"></ellipse><circle cx="315" cy="184" r="2.7" fill="url(#tc-button)"></circle><circle cx="314.2" cy="183.1" r="0.9" fill="#68c79e" opacity="0.45"></circle></g><g><ellipse cx="353" cy="185.3" rx="3.6" ry="2.9" fill="#04170f" opacity="0.8"></ellipse><circle cx="353" cy="184" r="2.7" fill="url(#tc-button)"></circle><circle cx="352.2" cy="183.1" r="0.9" fill="#68c79e" opacity="0.45"></circle></g><g><ellipse cx="391" cy="185.3" rx="3.6" ry="2.9" fill="#04170f" opacity="0.8"></ellipse><circle cx="391" cy="184" r="2.7" fill="url(#tc-button)"></circle><circle cx="390.2" cy="183.1" r="0.9" fill="#68c79e" opacity="0.45"></circle></g><g><ellipse cx="429" cy="185.3" rx="3.6" ry="2.9" fill="#04170f" opacity="0.8"></ellipse><circle cx="429" cy="184" r="2.7" fill="url(#tc-button)"></circle><circle cx="428.2" cy="183.1" r="0.9" fill="#68c79e" opacity="0.45"></circle></g><g><ellipse cx="106" cy="217.3" rx="3.6" ry="2.9" fill="#04170f" opacity="0.8"></ellipse><circle cx="106" cy="216" r="2.7" fill="url(#tc-button)"></circle><circle cx="105.2" cy="215.1" r="0.9" fill="#68c79e" opacity="0.45"></circle></g><g><ellipse cx="144" cy="217.3" rx="3.6" ry="2.9" fill="#04170f" opacity="0.8"></ellipse><circle cx="144" cy="216" r="2.7" fill="url(#tc-button)"></circle><circle cx="143.2" cy="215.1" r="0.9" fill="#68c79e" opacity="0.45"></circle></g><g><ellipse cx="182" cy="217.3" rx="3.6" ry="2.9" fill="#04170f" opacity="0.8"></ellipse><circle cx="182" cy="216" r="2.7" fill="url(#tc-button)"></circle><circle cx="181.2" cy="215.1" r="0.9" fill="#68c79e" opacity="0.45"></circle></g><g><ellipse cx="220" cy="217.3" rx="3.6" ry="2.9" fill="#04170f" opacity="0.8"></ellipse><circle cx="220" cy="216" r="2.7" fill="url(#tc-button)"></circle><circle cx="219.2" cy="215.1" r="0.9" fill="#68c79e" opacity="0.45"></circle></g><g><ellipse cx="258" cy="217.3" rx="3.6" ry="2.9" fill="#04170f" opacity="0.8"></ellipse><circle cx="258" cy="216" r="2.7" fill="url(#tc-button)"></circle><circle cx="257.2" cy="215.1" r="0.9" fill="#68c79e" opacity="0.45"></circle></g><g><ellipse cx="296" cy="217.3" rx="3.6" ry="2.9" fill="#04170f" opacity="0.8"></ellipse><circle cx="296" cy="216" r="2.7" fill="url(#tc-button)"></circle><circle cx="295.2" cy="215.1" r="0.9" fill="#68c79e" opacity="0.45"></circle></g><g><ellipse cx="334" cy="217.3" rx="3.6" ry="2.9" fill="#04170f" opacity="0.8"></ellipse><circle cx="334" cy="216" r="2.7" fill="url(#tc-button)"></circle><circle cx="333.2" cy="215.1" r="0.9" fill="#68c79e" opacity="0.45"></circle></g><g><ellipse cx="372" cy="217.3" rx="3.6" ry="2.9" fill="#04170f" opacity="0.8"></ellipse><circle cx="372" cy="216" r="2.7" fill="url(#tc-button)"></circle><circle cx="371.2" cy="215.1" r="0.9" fill="#68c79e" opacity="0.45"></circle></g><g><ellipse cx="410" cy="217.3" rx="3.6" ry="2.9" fill="#04170f" opacity="0.8"></ellipse><circle cx="410" cy="216" r="2.7" fill="url(#tc-button)"></circle><circle cx="409.2" cy="215.1" r="0.9" fill="#68c79e" opacity="0.45"></circle></g><g><ellipse cx="448" cy="217.3" rx="3.6" ry="2.9" fill="#04170f" opacity="0.8"></ellipse><circle cx="448" cy="216" r="2.7" fill="url(#tc-button)"></circle><circle cx="447.2" cy="215.1" r="0.9" fill="#68c79e" opacity="0.45"></circle></g><g><ellipse cx="125" cy="249.3" rx="3.6" ry="2.9" fill="#04170f" opacity="0.8"></ellipse><circle cx="125" cy="248" r="2.7" fill="url(#tc-button)"></circle><circle cx="124.2" cy="247.1" r="0.9" fill="#68c79e" opacity="0.45"></circle></g><g><ellipse cx="163" cy="249.3" rx="3.6" ry="2.9" fill="#04170f" opacity="0.8"></ellipse><circle cx="163" cy="248" r="2.7" fill="url(#tc-button)"></circle><circle cx="162.2" cy="247.1" r="0.9" fill="#68c79e" opacity="0.45"></circle></g><g><ellipse cx="201" cy="249.3" rx="3.6" ry="2.9" fill="#04170f" opacity="0.8"></ellipse><circle cx="201" cy="248" r="2.7" fill="url(#tc-button)"></circle><circle cx="200.2" cy="247.1" r="0.9" fill="#68c79e" opacity="0.45"></circle></g><g><ellipse cx="239" cy="249.3" rx="3.6" ry="2.9" fill="#04170f" opacity="0.8"></ellipse><circle cx="239" cy="248" r="2.7" fill="url(#tc-button)"></circle><circle cx="238.2" cy="247.1" r="0.9" fill="#68c79e" opacity="0.45"></circle></g><g><ellipse cx="277" cy="249.3" rx="3.6" ry="2.9" fill="#04170f" opacity="0.8"></ellipse><circle cx="277" cy="248" r="2.7" fill="url(#tc-button)"></circle><circle cx="276.2" cy="247.1" r="0.9" fill="#68c79e" opacity="0.45"></circle></g><g><ellipse cx="315" cy="249.3" rx="3.6" ry="2.9" fill="#04170f" opacity="0.8"></ellipse><circle cx="315" cy="248" r="2.7" fill="url(#tc-button)"></circle><circle cx="314.2" cy="247.1" r="0.9" fill="#68c79e" opacity="0.45"></circle></g><g><ellipse cx="353" cy="249.3" rx="3.6" ry="2.9" fill="#04170f" opacity="0.8"></ellipse><circle cx="353" cy="248" r="2.7" fill="url(#tc-button)"></circle><circle cx="352.2" cy="247.1" r="0.9" fill="#68c79e" opacity="0.45"></circle></g><g><ellipse cx="391" cy="249.3" rx="3.6" ry="2.9" fill="#04170f" opacity="0.8"></ellipse><circle cx="391" cy="248" r="2.7" fill="url(#tc-button)"></circle><circle cx="390.2" cy="247.1" r="0.9" fill="#68c79e" opacity="0.45"></circle></g><g><ellipse cx="429" cy="249.3" rx="3.6" ry="2.9" fill="#04170f" opacity="0.8"></ellipse><circle cx="429" cy="248" r="2.7" fill="url(#tc-button)"></circle><circle cx="428.2" cy="247.1" r="0.9" fill="#68c79e" opacity="0.45"></circle></g><g><ellipse cx="106" cy="281.3" rx="3.6" ry="2.9" fill="#04170f" opacity="0.8"></ellipse><circle cx="106" cy="280" r="2.7" fill="url(#tc-button)"></circle><circle cx="105.2" cy="279.1" r="0.9" fill="#68c79e" opacity="0.45"></circle></g><g><ellipse cx="144" cy="281.3" rx="3.6" ry="2.9" fill="#04170f" opacity="0.8"></ellipse><circle cx="144" cy="280" r="2.7" fill="url(#tc-button)"></circle><circle cx="143.2" cy="279.1" r="0.9" fill="#68c79e" opacity="0.45"></circle></g><g><ellipse cx="182" cy="281.3" rx="3.6" ry="2.9" fill="#04170f" opacity="0.8"></ellipse><circle cx="182" cy="280" r="2.7" fill="url(#tc-button)"></circle><circle cx="181.2" cy="279.1" r="0.9" fill="#68c79e" opacity="0.45"></circle></g><g><ellipse cx="220" cy="281.3" rx="3.6" ry="2.9" fill="#04170f" opacity="0.8"></ellipse><circle cx="220" cy="280" r="2.7" fill="url(#tc-button)"></circle><circle cx="219.2" cy="279.1" r="0.9" fill="#68c79e" opacity="0.45"></circle></g><g><ellipse cx="258" cy="281.3" rx="3.6" ry="2.9" fill="#04170f" opacity="0.8"></ellipse><circle cx="258" cy="280" r="2.7" fill="url(#tc-button)"></circle><circle cx="257.2" cy="279.1" r="0.9" fill="#68c79e" opacity="0.45"></circle></g><g><ellipse cx="296" cy="281.3" rx="3.6" ry="2.9" fill="#04170f" opacity="0.8"></ellipse><circle cx="296" cy="280" r="2.7" fill="url(#tc-button)"></circle><circle cx="295.2" cy="279.1" r="0.9" fill="#68c79e" opacity="0.45"></circle></g><g><ellipse cx="334" cy="281.3" rx="3.6" ry="2.9" fill="#04170f" opacity="0.8"></ellipse><circle cx="334" cy="280" r="2.7" fill="url(#tc-button)"></circle><circle cx="333.2" cy="279.1" r="0.9" fill="#68c79e" opacity="0.45"></circle></g><g><ellipse cx="372" cy="281.3" rx="3.6" ry="2.9" fill="#04170f" opacity="0.8"></ellipse><circle cx="372" cy="280" r="2.7" fill="url(#tc-button)"></circle><circle cx="371.2" cy="279.1" r="0.9" fill="#68c79e" opacity="0.45"></circle></g><g><ellipse cx="410" cy="281.3" rx="3.6" ry="2.9" fill="#04170f" opacity="0.8"></ellipse><circle cx="410" cy="280" r="2.7" fill="url(#tc-button)"></circle><circle cx="409.2" cy="279.1" r="0.9" fill="#68c79e" opacity="0.45"></circle></g><g><ellipse cx="448" cy="281.3" rx="3.6" ry="2.9" fill="#04170f" opacity="0.8"></ellipse><circle cx="448" cy="280" r="2.7" fill="url(#tc-button)"></circle><circle cx="447.2" cy="279.1" r="0.9" fill="#68c79e" opacity="0.45"></circle></g><g><ellipse cx="125" cy="313.3" rx="3.6" ry="2.9" fill="#04170f" opacity="0.8"></ellipse><circle cx="125" cy="312" r="2.7" fill="url(#tc-button)"></circle><circle cx="124.2" cy="311.1" r="0.9" fill="#68c79e" opacity="0.45"></circle></g><g><ellipse cx="163" cy="313.3" rx="3.6" ry="2.9" fill="#04170f" opacity="0.8"></ellipse><circle cx="163" cy="312" r="2.7" fill="url(#tc-button)"></circle><circle cx="162.2" cy="311.1" r="0.9" fill="#68c79e" opacity="0.45"></circle></g><g><ellipse cx="201" cy="313.3" rx="3.6" ry="2.9" fill="#04170f" opacity="0.8"></ellipse><circle cx="201" cy="312" r="2.7" fill="url(#tc-button)"></circle><circle cx="200.2" cy="311.1" r="0.9" fill="#68c79e" opacity="0.45"></circle></g><g><ellipse cx="239" cy="313.3" rx="3.6" ry="2.9" fill="#04170f" opacity="0.8"></ellipse><circle cx="239" cy="312" r="2.7" fill="url(#tc-button)"></circle><circle cx="238.2" cy="311.1" r="0.9" fill="#68c79e" opacity="0.45"></circle></g><g><ellipse cx="277" cy="313.3" rx="3.6" ry="2.9" fill="#04170f" opacity="0.8"></ellipse><circle cx="277" cy="312" r="2.7" fill="url(#tc-button)"></circle><circle cx="276.2" cy="311.1" r="0.9" fill="#68c79e" opacity="0.45"></circle></g><g><ellipse cx="315" cy="313.3" rx="3.6" ry="2.9" fill="#04170f" opacity="0.8"></ellipse><circle cx="315" cy="312" r="2.7" fill="url(#tc-button)"></circle><circle cx="314.2" cy="311.1" r="0.9" fill="#68c79e" opacity="0.45"></circle></g><g><ellipse cx="353" cy="313.3" rx="3.6" ry="2.9" fill="#04170f" opacity="0.8"></ellipse><circle cx="353" cy="312" r="2.7" fill="url(#tc-button)"></circle><circle cx="352.2" cy="311.1" r="0.9" fill="#68c79e" opacity="0.45"></circle></g><g><ellipse cx="391" cy="313.3" rx="3.6" ry="2.9" fill="#04170f" opacity="0.8"></ellipse><circle cx="391" cy="312" r="2.7" fill="url(#tc-button)"></circle><circle cx="390.2" cy="311.1" r="0.9" fill="#68c79e" opacity="0.45"></circle></g><g><ellipse cx="429" cy="313.3" rx="3.6" ry="2.9" fill="#04170f" opacity="0.8"></ellipse><circle cx="429" cy="312" r="2.7" fill="url(#tc-button)"></circle><circle cx="428.2" cy="311.1" r="0.9" fill="#68c79e" opacity="0.45"></circle></g></g></g><path d="M 90,158
          C 90,138 107,134 130,134
          L 430,134
          C 453,134 470,138 470,158" fill="none" stroke="#3fa47a" stroke-width="1.6" opacity="0.5"></path><path d="M 71,328 L 489,328
          C 497,334 497,361 489,369
          L 71,369
          C 63,361 63,334 71,328 Z" fill="url(#tc-seat)"></path><path d="M 71,328 L 489,328
          C 497,334 497,361 489,369
          L 71,369
          C 63,361 63,334 71,328 Z" fill="url(#tc-nap)" opacity="0.2" style="mix-blend-mode: soft-light;"></path><path d="M 75,331 L 485,331" stroke="#3fa47a" stroke-width="2" opacity="0.4" fill="none" stroke-linecap="round"></path><g><g class="tc-book" transform="translate(105.5, 343) rotate(-3)"><title>The Protagonist</title><g class="tc-book-lift"><ellipse cx="0" cy="2" rx="20.46" ry="3.5" fill="#03180e" opacity="0.5"></ellipse><rect x="-16.5" y="-168" width="33" height="168" rx="1.5" fill="#e2c25c"></rect><rect x="-16.5" y="-168" width="33" height="168" rx="1.5" fill="url(#tc-spine)"></rect><text class="tc-book-title" x="0" y="-88" transform="rotate(-90 0 -88)" text-anchor="middle" dominant-baseline="central" fill="#3a2f10" font-size="15">The Protagonist</text><text class="tc-book-no" x="0" y="-13" transform="rotate(-90 0 -13)" text-anchor="middle" dominant-baseline="central" fill="#3a2f10" opacity="0.6">001</text></g></g><g class="tc-book" transform="translate(139.5, 343) rotate(-1.5)"><title>The Rival</title><g class="tc-book-lift"><ellipse cx="0" cy="2" rx="15.5" ry="3.5" fill="#03180e" opacity="0.5"></ellipse><rect x="-12.5" y="-128" width="25" height="128" rx="1.5" fill="#b5503f"></rect><rect x="-12.5" y="-128" width="25" height="128" rx="1.5" fill="url(#tc-spine)"></rect><text class="tc-book-title" x="0" y="-68" transform="rotate(-90 0 -68)" text-anchor="middle" dominant-baseline="central" fill="#f7ece2" font-size="15">The Rival</text><text class="tc-book-no" x="0" y="-13" transform="rotate(-90 0 -13)" text-anchor="middle" dominant-baseline="central" fill="#f7ece2" opacity="0.6">002</text></g></g><g class="tc-book" transform="translate(177.5, 343) rotate(0)"><title>The Confidante</title><g class="tc-book-lift"><ellipse cx="0" cy="2" rx="25.419999999999998" ry="3.5" fill="#03180e" opacity="0.5"></ellipse><rect x="-20.5" y="-159" width="41" height="159" rx="1.5" fill="#d3a2ac"></rect><rect x="-20.5" y="-159" width="41" height="159" rx="1.5" fill="url(#tc-spine)"></rect><text class="tc-book-title" x="0" y="-83.5" transform="rotate(-90 0 -83.5)" text-anchor="middle" dominant-baseline="central" fill="#402029" font-size="15">The Confidante</text><text class="tc-book-no" x="0" y="-13" transform="rotate(-90 0 -13)" text-anchor="middle" dominant-baseline="central" fill="#402029" opacity="0.6">003</text></g></g><g class="tc-book" transform="translate(217.5, 343) rotate(2)"><title>The Beloved</title><g class="tc-book-lift"><ellipse cx="0" cy="2" rx="17.98" ry="3.5" fill="#03180e" opacity="0.5"></ellipse><rect x="-14.5" y="-188" width="29" height="188" rx="1.5" fill="#e6dfcd"></rect><rect x="-14.5" y="-188" width="29" height="188" rx="1.5" fill="url(#tc-spine)"></rect><text class="tc-book-title" x="0" y="-98" transform="rotate(-90 0 -98)" text-anchor="middle" dominant-baseline="central" fill="#3b3527" font-size="15">The Beloved</text><text class="tc-book-no" x="0" y="-13" transform="rotate(-90 0 -13)" text-anchor="middle" dominant-baseline="central" fill="#3b3527" opacity="0.6">004</text></g></g><g class="tc-book" transform="translate(280, 343)"><title>Your manuscript</title><g class="tc-book-lift"><ellipse cx="0" cy="2" rx="47.300000000000004" ry="4" fill="#03180e" opacity="0.55"></ellipse><rect x="-43" y="-157" width="86" height="157" rx="2" fill="url(#tc-faceout)"></rect><rect x="-43" y="-157" width="86" height="157" rx="2" fill="url(#tc-nap)" opacity="0.2" style="mix-blend-mode: soft-light;"></rect><rect x="-43" y="-157" width="4" height="157" fill="#000" opacity="0.28"></rect><text class="tc-fo-label" x="2" y="-137" text-anchor="middle">MANUSCRIPT</text><text class="tc-fo-title" x="2" y="-97" text-anchor="middle">Your</text><text class="tc-fo-title" x="2" y="-77" text-anchor="middle">book</text><line x1="-11" y1="-65" x2="15" y2="-65" stroke="#b6893f" stroke-width="1"></line><text class="tc-fo-sub" x="2" y="-49" text-anchor="middle">Waiting to be read</text><text class="tc-fo-label" x="2" y="-14" text-anchor="middle">THE GREEN ROOM</text></g></g><g class="tc-book" transform="translate(346.5, 343) rotate(-2.5)"><title>The Mentor</title><g class="tc-book-lift"><ellipse cx="0" cy="2" rx="22.94" ry="3.5" fill="#03180e" opacity="0.5"></ellipse><rect x="-18.5" y="-140" width="37" height="140" rx="1.5" fill="#5d3a6e"></rect><rect x="-18.5" y="-140" width="37" height="140" rx="1.5" fill="url(#tc-spine)"></rect><text class="tc-book-title" x="0" y="-74" transform="rotate(-90 0 -74)" text-anchor="middle" dominant-baseline="central" fill="#efe6f2" font-size="15">The Mentor</text><text class="tc-book-no" x="0" y="-13" transform="rotate(-90 0 -13)" text-anchor="middle" dominant-baseline="central" fill="#efe6f2" opacity="0.6">005</text></g></g><g class="tc-book" transform="translate(382, 343) rotate(0)"><title>The Rival's Sister</title><g class="tc-book-lift"><ellipse cx="0" cy="2" rx="14.879999999999999" ry="3.5" fill="#03180e" opacity="0.5"></ellipse><rect x="-12" y="-180" width="24" height="180" rx="1.5" fill="#aec2d3"></rect><rect x="-12" y="-180" width="24" height="180" rx="1.5" fill="url(#tc-spine)"></rect><text class="tc-book-title" x="0" y="-94" transform="rotate(-90 0 -94)" text-anchor="middle" dominant-baseline="central" fill="#25333f" font-size="14.14141414141414">The Rival's Sister</text><text class="tc-book-no" x="0" y="-13" transform="rotate(-90 0 -13)" text-anchor="middle" dominant-baseline="central" fill="#25333f" opacity="0.6">006</text></g></g><g class="tc-book" transform="translate(421.5, 343) rotate(1.5)"><title>The Narrator</title><g class="tc-book-lift"><ellipse cx="0" cy="2" rx="27.9" ry="3.5" fill="#03180e" opacity="0.5"></ellipse><rect x="-22.5" y="-173" width="45" height="173" rx="1.5" fill="#4a4642"></rect><rect x="-22.5" y="-173" width="45" height="173" rx="1.5" fill="url(#tc-spine)"></rect><text class="tc-book-title" x="0" y="-90.5" transform="rotate(-90 0 -90.5)" text-anchor="middle" dominant-baseline="central" fill="#eae5da" font-size="15">The Narrator</text><text class="tc-book-no" x="0" y="-13" transform="rotate(-90 0 -13)" text-anchor="middle" dominant-baseline="central" fill="#eae5da" opacity="0.6">007</text></g></g><g class="tc-book" transform="translate(460, 343) rotate(4)"><title>The Ghost</title><g class="tc-book-lift"><ellipse cx="0" cy="2" rx="13.64" ry="3.5" fill="#03180e" opacity="0.5"></ellipse><rect x="-11" y="-120" width="22" height="120" rx="1.5" fill="#c9762f"></rect><rect x="-11" y="-120" width="22" height="120" rx="1.5" fill="url(#tc-spine)"></rect><text class="tc-book-title" x="0" y="-64" transform="rotate(-90 0 -64)" text-anchor="middle" dominant-baseline="central" fill="#fdf3e6" font-size="15">The Ghost</text><text class="tc-book-no" x="0" y="-13" transform="rotate(-90 0 -13)" text-anchor="middle" dominant-baseline="central" fill="#fdf3e6" opacity="0.6">008</text></g></g></g><g><path d="M 88,300
    C 88,283 79,276 63,276
    C 45,276 38,287 38,304
    L 38,387 L 88,387 Z" fill="url(#tc-arm)"></path><path d="M 88,300
    C 88,283 79,276 63,276
    C 45,276 38,287 38,304
    L 38,387 L 88,387 Z" fill="url(#tc-nap)" opacity="0.22" style="mix-blend-mode: soft-light;"></path><ellipse cx="63" cy="300" rx="25" ry="23" fill="url(#tc-roll)"></ellipse><path d="M 63,286 C 73,286 78,292 78,300
            C 78,308 72,313 65,313
            C 59,313 55,308 55,303" fill="none" stroke="#082a1c" stroke-width="1.3" opacity="0.55"></path><path d="M 63,283 C 74,283 81,291 81,300" fill="none" stroke="#47ab80" stroke-width="1.3" opacity="0.35"></path><g><circle cx="44" cy="327" r="2.2" fill="url(#tc-brass)"></circle><circle cx="44.44621272426349" cy="340.75" r="2.2" fill="url(#tc-brass)"></circle><circle cx="44.86993106822246" cy="354.5" r="2.2" fill="url(#tc-brass)"></circle><circle cx="45.2497946334554" cy="368.25" r="2.2" fill="url(#tc-brass)"></circle><circle cx="45.56665381925497" cy="382" r="2.2" fill="url(#tc-brass)"></circle><circle cx="56.03668315938407" cy="325.1831621893444" r="2.2" fill="url(#tc-brass)"></circle><circle cx="47.261665420140346" cy="321.50409493113864" r="2.2" fill="url(#tc-brass)"></circle><circle cx="40.347524157501475" cy="315.2824165596043" r="2.2" fill="url(#tc-brass)"></circle><circle cx="36.11177680104559" cy="307.25376875701994" r="2.2" fill="url(#tc-brass)"></circle><circle cx="35.0552516040084" cy="298.36744649223783" r="2.2" fill="url(#tc-brass)"></circle></g></g><g transform="translate(560,0) scale(-1,1)"><g><path d="M 88,300
    C 88,283 79,276 63,276
    C 45,276 38,287 38,304
    L 38,387 L 88,387 Z" fill="url(#tc-arm)"></path><path d="M 88,300
    C 88,283 79,276 63,276
    C 45,276 38,287 38,304
    L 38,387 L 88,387 Z" fill="url(#tc-nap)" opacity="0.22" style="mix-blend-mode: soft-light;"></path><ellipse cx="63" cy="300" rx="25" ry="23" fill="url(#tc-roll)"></ellipse><path d="M 63,286 C 73,286 78,292 78,300
            C 78,308 72,313 65,313
            C 59,313 55,308 55,303" fill="none" stroke="#082a1c" stroke-width="1.3" opacity="0.55"></path><path d="M 63,283 C 74,283 81,291 81,300" fill="none" stroke="#47ab80" stroke-width="1.3" opacity="0.35"></path><g><circle cx="44" cy="327" r="2.2" fill="url(#tc-brass)"></circle><circle cx="44.44621272426349" cy="340.75" r="2.2" fill="url(#tc-brass)"></circle><circle cx="44.86993106822246" cy="354.5" r="2.2" fill="url(#tc-brass)"></circle><circle cx="45.2497946334554" cy="368.25" r="2.2" fill="url(#tc-brass)"></circle><circle cx="45.56665381925497" cy="382" r="2.2" fill="url(#tc-brass)"></circle><circle cx="56.03668315938407" cy="325.1831621893444" r="2.2" fill="url(#tc-brass)"></circle><circle cx="47.261665420140346" cy="321.50409493113864" r="2.2" fill="url(#tc-brass)"></circle><circle cx="40.347524157501475" cy="315.2824165596043" r="2.2" fill="url(#tc-brass)"></circle><circle cx="36.11177680104559" cy="307.25376875701994" r="2.2" fill="url(#tc-brass)"></circle><circle cx="35.0552516040084" cy="298.36744649223783" r="2.2" fill="url(#tc-brass)"></circle></g></g></g><path d="M 64,369 L 496,369
          C 502,374 502,383 494,387
          L 66,387
          C 58,383 58,374 64,369 Z" fill="url(#tc-rail)"></path><path d="M 64,369 L 496,369
          C 502,374 502,383 494,387
          L 66,387
          C 58,383 58,374 64,369 Z" fill="url(#tc-nap)" opacity="0.16" style="mix-blend-mode: soft-light;"></path><g transform="translate(80, 385)"><path d="M -8,0 L 8,0 L 7,6
  C 12,11 12,17 7,21 L 6,28
  C 9,31 9,35 5,38 L 4,43 L -4,43 L -5,38
  C -9,35 -9,31 -6,28 L -7,21
  C -12,17 -12,11 -7,6 Z" fill="url(#tc-wood)"></path><path d="M -8,0 L 8,0 L 7,6
  C 12,11 12,17 7,21 L 6,28
  C 9,31 9,35 5,38 L 4,43 L -4,43 L -5,38
  C -9,35 -9,31 -6,28 L -7,21
  C -12,17 -12,11 -7,6 Z" fill="none" stroke="#160c05" stroke-width="0.6" opacity="0.55"></path></g><g transform="translate(207, 385)"><path d="M -8,0 L 8,0 L 7,6
  C 12,11 12,17 7,21 L 6,28
  C 9,31 9,35 5,38 L 4,43 L -4,43 L -5,38
  C -9,35 -9,31 -6,28 L -7,21
  C -12,17 -12,11 -7,6 Z" fill="url(#tc-wood)"></path><path d="M -8,0 L 8,0 L 7,6
  C 12,11 12,17 7,21 L 6,28
  C 9,31 9,35 5,38 L 4,43 L -4,43 L -5,38
  C -9,35 -9,31 -6,28 L -7,21
  C -12,17 -12,11 -7,6 Z" fill="none" stroke="#160c05" stroke-width="0.6" opacity="0.55"></path></g><g transform="translate(353, 385)"><path d="M -8,0 L 8,0 L 7,6
  C 12,11 12,17 7,21 L 6,28
  C 9,31 9,35 5,38 L 4,43 L -4,43 L -5,38
  C -9,35 -9,31 -6,28 L -7,21
  C -12,17 -12,11 -7,6 Z" fill="url(#tc-wood)"></path><path d="M -8,0 L 8,0 L 7,6
  C 12,11 12,17 7,21 L 6,28
  C 9,31 9,35 5,38 L 4,43 L -4,43 L -5,38
  C -9,35 -9,31 -6,28 L -7,21
  C -12,17 -12,11 -7,6 Z" fill="none" stroke="#160c05" stroke-width="0.6" opacity="0.55"></path></g><g transform="translate(480, 385)"><path d="M -8,0 L 8,0 L 7,6
  C 12,11 12,17 7,21 L 6,28
  C 9,31 9,35 5,38 L 4,43 L -4,43 L -5,38
  C -9,35 -9,31 -6,28 L -7,21
  C -12,17 -12,11 -7,6 Z" fill="url(#tc-wood)"></path><path d="M -8,0 L 8,0 L 7,6
  C 12,11 12,17 7,21 L 6,28
  C 9,31 9,35 5,38 L 4,43 L -4,43 L -5,38
  C -9,35 -9,31 -6,28 L -7,21
  C -12,17 -12,11 -7,6 Z" fill="none" stroke="#160c05" stroke-width="0.6" opacity="0.55"></path></g></svg>
